<?xml version="1.0" encoding="UTF-8"?> <!DOCTYPE svg PUBLIC "-//W3C//DTD SVG 1.1//EN" "http://www.w3.org/Graphics/SVG/1.1/DTD/svg11.dtd"> <svg version="1.1" xmlns="http://www.w3.org/2000/svg" xmlns:xlink="http://www.w3.org/1999/xlink" x="0" y="0" width="100%" height="100%" viewBox="0 0 800 800"> <g id="Layer_1"> <path d="M679.682,120.407 C747.771,188.991 785.144,269.205 793.891,365.422 L678.59,375.461 L678.587,375.432 L637.141,379.039 C631.973,323.476 607.619,271.193 568.557,231.532 L679.682,120.407 z" fill="#FBAD20"/> <path d="M793.991,365.323 C802.042,461.639 779.18,547.121 724.014,626.442 L675.818,592.728 L675.807,592.745 L594.996,536.187 C626.605,490.465 641.514,434.802 637.141,379.039 L715.071,372.256 L793.991,365.323 z" fill="#F5EB13"/> <path d="M594.996,536.088 L629.139,560.014 L629.189,559.944 L724.014,626.342 C668.253,705.263 595.792,756.056 501.264,781.801 L471.246,669.679 L471.328,669.655 L460.611,629.424 C502.159,618.092 539.234,596.623 568.953,566.901 C578.496,557.36 587.243,547.022 594.996,536.088 z" fill="#B8D433"/> <path d="M299.784,614.911 C350.277,638.071 407.631,643.041 460.611,629.523 L486.155,724.944 L485.93,725.001 L501.164,781.899 C408.923,806.054 320.757,798.301 233.088,757.845 L257.979,704.487 L257.938,704.468 L299.784,614.911 z" fill="#6BC9C6"/> <path d="M184.979,500.106 C196.808,525.154 212.811,547.718 232.492,567.498 C252.173,587.179 274.836,603.182 299.785,615.011 L282.29,652.582 L282.29,652.582 L281.804,653.624 L258.037,704.667 L258.003,704.651 L233.188,757.845 C189.055,737.072 152.079,711.526 120.272,679.618 C88.464,647.812 62.819,610.835 42.045,566.703 L147.308,517.6 L147.327,517.638 L184.979,500.106 z" fill="#058BC5"/> <path d="M18.487,297.435 L130.708,327.452 L130.68,327.566 L170.765,338.287 C156.849,392.259 161.82,449.613 184.979,500.106 L95.323,541.953 L95.312,541.929 L42.045,566.802 C1.591,479.034 -6.163,390.968 18.487,297.435 z" fill="#34469D"/> <path d="M173.548,76.175 L207.328,124.394 L207.344,124.382 L233.821,162.213 L240.045,171.099 L240.042,171.102 L263.902,205.193 C252.968,212.945 242.63,221.792 233.088,231.236 C203.369,260.955 181.898,298.03 170.864,338.486 L75.974,313.009 L18.487,297.633 C43.834,204.397 94.627,131.937 173.548,76.175 z" fill="#7E4D9F"/> <path d="M390.235,4.495 C405.034,4.119 419.817,4.91 434.568,5.999 L429.417,64.638 L429.499,64.644 L420.95,162.849 C365.188,158.376 309.525,173.386 263.802,204.994 L239.911,170.857 L239.846,170.9 L173.449,75.976 C227.456,38.106 290.114,13.43 355.828,6.572 C370.948,4.995 375.015,5.087 390.235,4.495 z" fill="#C63D96"/> <path d="M568.358,231.433 C528.698,192.271 476.414,168.017 420.751,162.849 L429.399,64.644 L429.415,64.646 L434.568,5.999 C530.785,14.846 610.999,52.219 679.583,120.208 L568.358,231.433 z" fill="#ED1944"/> </g> </svg>
