<?xml version="1.0" encoding="UTF-8"?>
<svg width="17px" height="16px" viewBox="0 0 17 16" version="1.1" xmlns="http://www.w3.org/2000/svg" xmlns:xlink="http://www.w3.org/1999/xlink">
    <!-- Generator: Sketch 51.2 (57519) - http://www.bohemiancoding.com/sketch -->
    <title>icon/蓝色左侧导航/设置(正常)</title>
    <desc>Created with Sketch.</desc>
    <defs>
        <linearGradient x1="50%" y1="100%" x2="50%" y2="0%" id="linearGradient-1">
            <stop stop-color="#CAE9FF" offset="0%"></stop>
            <stop stop-color="#20A0FF" offset="100%"></stop>
        </linearGradient>
    </defs>
    <g id="icon/蓝色左侧导航/设置(正常)" stroke="none" stroke-width="1" fill="none" fill-rule="evenodd">
        <g id="icon" fill-rule="nonzero">
            <g id="icon/左侧导航/设置(正常)" fill="url(#linearGradient-1)">
                <g id="设置" transform="translate(4.000000, 4.000000)">
                    <path d="M4,8 C1.790861,8 0,6.209139 0,4 C0,1.790861 1.790861,0 4,0 C6.209139,0 8,1.790861 8,4 C8,6.209139 6.209139,8 4,8 Z M4,5.33333333 C4.73637967,5.33333333 5.33333333,4.73637967 5.33333333,4 C5.33333333,3.26362033 4.73637967,2.66666667 4,2.66666667 C3.26362033,2.66666667 2.66666667,3.26362033 2.66666667,4 C2.66666667,4.73637967 3.26362033,5.33333333 4,5.33333333 Z" id="Combined-Shape"></path>
                </g>
            </g>
            <path d="M6.1260599,14.9927579 C6.1261804,14.9928166 6.38482549,14.4634198 6.90199518,13.4045676 C7.07579912,13.0484842 7.44345638,12.8286067 7.83939528,12.8439552 C7.89779455,12.8462191 7.95636723,12.8473541 8.01509638,12.8473541 C8.07393356,12.8473541 8.13261369,12.8462149 8.19111973,12.8439427 C8.58702072,12.8285673 8.95466594,13.0483767 9.1285153,13.4043969 L9.90413286,14.9927579 C9.90419164,14.9928784 10.6475334,14.6311566 12.1341583,13.9075925 L11.3483164,12.296378 C11.1748382,11.9406949 11.2274284,11.5161683 11.4824544,11.2135682 C11.5738112,11.1051692 11.6604266,10.9925622 11.742003,10.8761067 C11.9758402,10.5422893 12.3888709,10.3837872 12.7859957,10.4754707 L14.4717599,10.86466 L15.0299711,8.44678179 L13.3076772,8.04915893 C12.9145508,7.95839853 12.6144765,7.64028267 12.5467976,7.2425322 C12.5211672,7.09190226 12.4886043,6.94308275 12.4492628,6.79644625 C12.3468898,6.41487322 12.4787604,6.00879607 12.7857854,5.76017211 L14.1920432,4.62140699 L12.6303983,2.6929361 L11.2977966,3.77205568 C10.9808582,4.02870731 10.5398199,4.06718187 10.1832285,3.86928649 C10.0729146,3.80806621 9.96023853,3.75155278 9.84546126,3.69990155 C9.48661574,3.53841651 9.25583556,3.18149108 9.25583556,2.78798438 L9.25583556,1 L6.7743572,1 L6.7743572,2.78798438 C6.7743572,3.18149108 6.54357702,3.53841651 6.1847315,3.69990155 C6.06995423,3.75155278 5.95727819,3.80806621 5.84696423,3.86928649 C5.49037285,4.06718187 5.04933457,4.02870731 4.7323962,3.77205568 L3.3997945,2.6929361 L1.83814956,4.62140699 L3.24440737,5.76017211 C3.55143239,6.00879607 3.68330301,6.41487322 3.58092992,6.79644625 C3.54158849,6.94308275 3.50902552,7.09190226 3.48339518,7.2425322 C3.41571623,7.64028267 3.11564201,7.95839853 2.72251554,8.04915893 L1.0002217,8.44678179 L1.55843288,10.86466 L3.24419707,10.4754707 C3.64132183,10.3837872 4.05435256,10.5422893 4.28818979,10.8761067 C4.36974153,10.992527 4.45632921,11.1051011 4.54765555,11.21347 C4.80270744,11.5161173 4.85526323,11.9407137 4.68170047,12.2964142 L3.89582645,13.9069886 L6.1260599,14.9927579 Z M5.36171659,2.99490972 C5.49606369,2.92035192 5.63370479,2.85127974 5.7743572,2.78798438 L5.7743572,2.48534101 L5.7743572,2.04229993 L5.7743572,1 C5.7743572,0.44771525 6.22207245,0 6.7743572,0 L9.25583556,0 C9.80812031,0 10.2558356,0.44771525 10.2558356,1 L10.2558356,2.04229993 L10.2558356,2.48534101 L10.2558356,2.78798438 C10.396488,2.85127974 10.5341291,2.92035192 10.6684762,2.99490972 L10.9240077,2.78798438 L11.2558356,2.51927547 L12.0010779,1.91579014 C12.4302837,1.56822609 13.0599802,1.63440985 13.4075442,2.06361571 L14.9691892,3.9920866 C15.3167532,4.42129246 15.2505695,5.0509889 14.8213636,5.39855295 L13.9109155,6.13581925 L13.7122688,6.29668019 L13.4151058,6.53731807 C13.4623058,6.71324574 13.5016188,6.89254567 13.5326283,7.07478887 L13.9233965,7.16500482 L14.1611965,7.21990528 L15.2549221,7.47241173 C15.7930518,7.59664877 16.1285782,8.13360312 16.0043411,8.67173285 L15.4461299,11.0896111 C15.3218929,11.6277408 14.7849386,11.9632671 14.2468088,11.8390301 L13.2367187,11.6058324 L12.9159707,11.5317819 L12.5610446,11.4498408 C12.4622988,11.5908067 12.3575244,11.7269956 12.2471105,11.8580068 L12.3962275,12.1637421 L12.547017,12.4729063 L13.0329524,13.4692216 C13.2754642,13.9654138 13.0693258,14.564083 12.5729356,14.8061887 L10.3423896,15.8923488 C9.84583198,16.1335174 9.24753055,15.9274261 9.00543266,15.4313214 L8.57175313,14.5432038 L8.36426764,14.1183013 L8.22992691,13.8431894 C8.15864953,13.8459576 8.0870313,13.8473541 8.01509638,13.8473541 C7.94329388,13.8473541 7.8718069,13.8459627 7.80065947,13.8432047 L7.66633832,14.1183972 L7.45894362,14.5433002 L7.02535878,15.4316136 C6.78266221,15.9274261 6.18436079,16.1335174 5.68809496,15.89175 L3.45786124,14.8059806 C2.96116377,14.5645054 2.7547549,13.9659294 2.99663626,13.4694298 L3.4828494,12.4729817 L3.63389344,12.1634311 L3.78298211,11.8578879 C3.67260501,11.7269132 3.56786408,11.590764 3.46914812,11.4498408 L3.11451832,11.5317135 L2.79325089,11.6058839 L1.78338393,11.8390301 C1.24525421,11.9632671 0.708299851,11.6277408 0.584062814,11.0896111 L0.0258516401,8.67173285 C-0.0983853967,8.13360312 0.237140923,7.59664877 0.775270651,7.47241173 L1.86899625,7.21990528 L2.10679628,7.16500482 L2.49756448,7.07478887 C2.52857395,6.89254567 2.56788695,6.71324574 2.61508698,6.53731807 L2.31792394,6.29668019 L2.11927723,6.13581925 L1.20882917,5.39855295 C0.779623308,5.0509889 0.713439545,4.42129246 1.0610036,3.9920866 L2.62264853,2.06361571 C2.97021259,1.63440985 3.59990902,1.56822609 4.02911489,1.91579014 L4.7743572,2.51927547 L5.10618507,2.78798438 L5.36171659,2.99490972 Z" id="Combined-Shape" fill="#475669"></path>
        </g>
    </g>
</svg>