<?xml version="1.0" encoding="utf-8"?>
<!-- Generator: Adobe Illustrator 22.1.0, SVG Export Plug-In . SVG Version: 6.00 Build 0)  -->
<svg version="1.1"
     id="图层_1"
     xmlns="http://www.w3.org/2000/svg"
     xmlns:xlink="http://www.w3.org/1999/xlink"
     x="0px"
     y="0px"
     viewBox="0 0 16 17"
     style="enable-background:new 0 0 16 17;"
     xml:space="preserve">
    <style type="text/css">
        .st0 {
            fill: #FF3465;
        }

        .st1 {
            fill: url(#Rectangle-14_1_);
        }
    </style>
    <title>icon/红色左侧导航/服务与商品(选中)</title>
    <desc>Created with Sketch.</desc>
    <g id="icon_x2F_蓝色左侧导航_x2F_服务与商品_x28_正常_x29_">
        <g id="服务商品">
            <path id="Rectangle-13"
                  class="st0"
                  d="M8.2,3.4L9.6,2L11,3.4L10.3,4L11,4.7l0.6-0.6c0.4-0.4,0.4-1,0-1.4l-1.4-1.4
			c-0.4-0.4-1-0.4-1.4,0L7.2,2.9L8.2,3.4z M9.6,2L11,3.4L10.3,4L11,4.7l0.6-0.6c0.4-0.4,0.4-1,0-1.4l-1.4-1.4c-0.4-0.4-1-0.4-1.4,0
			L7.2,2.9l1,0.4L9.6,2z" />
            <path id="Rectangle-13_1_"
                  class="st0"
                  d="M8.8,4.8L5.9,2L4.5,3.4l0.7,0.7L4.5,4.8L3.8,4.1c-0.4-0.4-0.4-1,0-1.4l1.4-1.4
			c0.4-0.4,1-0.4,1.4,0l3.5,3.5L8.8,4.8z M8.8,4.8L5.9,2L4.5,3.4l0.7,0.7L4.5,4.8L3.8,4.1c-0.4-0.4-0.4-1,0-1.4l1.4-1.4
			c0.4-0.4,1-0.4,1.4,0l3.5,3.5L8.8,4.8z" />
            <path id="Rectangle-13-Copy"
                  class="st0"
                  d="M2,10v6h12v-6H2z M2,9h12c0.6,0,1,0.4,1,1v6c0,0.6-0.4,1-1,1H2c-0.6,0-1-0.4-1-1v-6
			C1,9.4,1.4,9,2,9z" />
            <path id="Rectangle-13_2_"
                  class="st0"
                  d="M1,5v4h14V5H1z M1,4h14c0.6,0,1,0.4,1,1v4c0,0.6-0.4,1-1,1H1c-0.6,0-1-0.4-1-1V5
			C0,4.4,0.4,4,1,4z" />

            <linearGradient id="Rectangle-14_1_"
                            gradientUnits="userSpaceOnUse"
                            x1="-216.25"
                            y1="391.4352"
                            x2="-216.25"
                            y2="392.4352"
                            gradientTransform="matrix(4 0 0 -11 873 4321.7876)">
                <stop offset="0"
                      style="stop-color:#FFD5E0" />
                <stop offset="1"
                      style="stop-color:#FF3465" />
            </linearGradient>
            <rect id="Rectangle-14"
                  x="6"
                  y="5"
                  class="st1"
                  width="4"
                  height="11" />
        </g>
    </g>
</svg>
