<?xml version="1.0" standalone="no"?><!DOCTYPE svg PUBLIC "-//W3C//DTD SVG 1.1//EN" "http://www.w3.org/Graphics/SVG/1.1/DTD/svg11.dtd"><svg t="1504059614632" class="icon" style="" viewBox="0 0 1024 1024" version="1.1" xmlns="http://www.w3.org/2000/svg" p-id="1003" xmlns:xlink="http://www.w3.org/1999/xlink" width="200" height="200"><defs><style type="text/css"></style></defs><path d="M542.12461 795.558416C534.94429 804.261066 524.076522 809.808458 511.913442 809.808458 499.750386 809.808458 488.882638 804.261086 481.702316 795.558466L190.422357 504.278506C175.134577 488.990726 175.134577 464.203154 190.422357 448.915374 205.710138 433.627594 230.49771 433.627594 245.78549 448.915374L472.765742 675.895626 472.765742 103.1477C472.765742 81.526326 490.293262 64 511.913442 64 533.533622 64 551.061142 81.52752 551.061142 103.1477L551.061142 675.894432 778.041396 448.914178C793.329176 433.626398 818.11675 433.626398 833.40453 448.914178 848.69231 464.201958 848.69231 488.989532 833.40453 504.277312L542.12461 795.558416ZM960 920.202822C960 941.823002 942.47248 959.350522 920.8523 959.350522L103.1477 959.350524C81.52752 959.350524 64 941.823004 64 920.202824 64 898.582644 81.52752 881.055124 103.1477 881.055124L920.8523 881.055124C942.473674 881.055122 960 898.582644 960 920.202822Z" p-id="1004"></path></svg>