<?xml version="1.0" standalone="no"?><!DOCTYPE svg PUBLIC "-//W3C//DTD SVG 1.1//EN" "http://www.w3.org/Graphics/SVG/1.1/DTD/svg11.dtd"><svg t="1504060326187" class="icon" style="" viewBox="0 0 1024 1024" version="1.1" xmlns="http://www.w3.org/2000/svg" p-id="3731" xmlns:xlink="http://www.w3.org/1999/xlink" width="200" height="200"><defs><style type="text/css"></style></defs><path d="M223.825 380.984H114.788c-20.325 0-36.86 16.534-36.86 36.86v500.653c0 20.325 16.535 36.86 36.86 36.86h701.249c19.436 0 35.407-15.121 36.765-34.218l82.674-480.8c0.235-1.376 0.355-2.768 0.355-4.164 0-20.325-16.535-36.86-36.86-36.86H582.244a350.711 350.711 0 0 0 43.02-72.182c20-45.054 30.141-93.083 30.141-142.753v-0.123c-0.005-1.03-0.151-25.45-2.348-43.389a24.694 24.694 0 0 0-0.33-1.97c-5.896-42.645-42.285-74.522-85.624-74.522-47.376 0-86.332 37.787-87.3 84.62-3.938 62.255-31.197 120.18-76.754 163.103-45.749 43.104-105.58 68.658-168.47 68.658M211.54 906.21h-84.465V430.13h84.464v476.08z m593.963 0H260.685V426.93c65.8-5.783 127.535-33.334 176.068-79.06 54.663-51.503 87.37-121.03 92.1-195.769l-20.408-1.29 20.408 1.29c0-20.56 17.37-38.578 38.25-38.578 19.049 0 34.994 14.242 37.092 33.127l0.06-0.007c0.008 0.067 0.011 0.134 0.02 0.202 1.798 14.676 1.976 36.308 1.984 37.6-0.01 42.736-8.727 84.033-25.915 122.75-16.617 37.436-40.295 70.656-70.373 98.735l-0.058 0.059a24.58 24.58 0 0 0-1.614 1.668l-0.162 0.186a24.692 24.692 0 0 0-2.667 3.746l-0.15 0.26a24.712 24.712 0 0 0-0.967 1.91l-0.094 0.204a23.99 23.99 0 0 0-0.797 2.053l-0.047 0.14a24.444 24.444 0 0 0-0.605 2.154l-0.03 0.124a24.292 24.292 0 0 0-0.414 2.36 24.893 24.893 0 0 0-0.177 2.155l-0.006 0.244c-0.006 0.233-0.017 0.463-0.017 0.697 0 0.488 0.018 0.971 0.046 1.452 0.003 0.06 0.009 0.12 0.013 0.18 0.05 0.75 0.128 1.49 0.243 2.218l0.007 0.04a24.37 24.37 0 0 0 2.116 6.767l0.03 0.059a24.665 24.665 0 0 0 1.12 2.052l0.08 0.125c0.403 0.653 0.834 1.285 1.295 1.896 0.039 0.052 0.081 0.102 0.12 0.153a24.768 24.768 0 0 0 1.475 1.748c0.023 0.024 0.042 0.052 0.065 0.077 0.088 0.094 0.181 0.182 0.27 0.274 0.158 0.164 0.317 0.328 0.48 0.487 0.15 0.149 0.303 0.293 0.457 0.438a25.054 25.054 0 0 0 1.95 1.641c0.097 0.074 0.196 0.145 0.295 0.218 0.235 0.172 0.47 0.341 0.709 0.504 0.079 0.053 0.16 0.105 0.24 0.157 0.26 0.172 0.52 0.342 0.784 0.503 0.063 0.04 0.128 0.075 0.191 0.113 0.283 0.169 0.566 0.335 0.854 0.49 0.053 0.029 0.109 0.056 0.163 0.084 0.299 0.16 0.6 0.317 0.904 0.463 0.063 0.03 0.13 0.058 0.195 0.088 0.298 0.14 0.595 0.279 0.898 0.406 0.15 0.063 0.304 0.12 0.455 0.18 0.22 0.088 0.44 0.179 0.662 0.26a24.328 24.328 0 0 0 3.558 1.005l0.126 0.023c0.356 0.07 0.713 0.135 1.076 0.19 0.184 0.027 0.368 0.046 0.554 0.07 0.218 0.027 0.434 0.06 0.654 0.082 0.83 0.084 1.662 0.127 2.495 0.127l0.044-0.002h357.422l-78.71 457.752z" fill="#272536" p-id="3732"></path></svg>